# xmcd
#
# Track frame offsets:
#	150
#	14662
#	29217
#	44145
#	61157
#	77582
#	94632
#	110820
#	129097
#	146882
#	159532
#
# Disc length: 2356 seconds
#
# Revision: 0
# Processed by: cddbd v1.5.1PL0 Copyright (c) Steve Scherf et al.
# Submitted via: dBpowerAMP V4.0
#
DISCID=9b09320b
DTITLE=Eltje Doodema - Veur aaid
DYEAR=1900
DGENRE=Country
TTITLE0=Dreum of fantasie
TTITLE1=Din blieven we stoan
TTITLE2=Zummernacht
TTITLE3=Laiverd
TTITLE4=Airco
TTITLE5=Veur aaid
TTITLE6=t Lief vanof de navvel bloot
TTITLE7=Wied vot
TTITLE8=Cindy
TTITLE9=Rekloame
TTITLE10=Ofschaaid
EXTD=
EXTT0=
EXTT1=
EXTT2=
EXTT3=
EXTT4=
EXTT5=
EXTT6=
EXTT7=
EXTT8=
EXTT9=
EXTT10=
PLAYORDER=
